<svg width="28" height="27" viewBox="0 0 28 27" fill="none" xmlns="http://www.w3.org/2000/svg">
<path d="M20.5769 23.112H24.7169V20.331L20.0099 18.846L19.8479 18.1259C20.2471 17.8157 20.5705 17.4187 20.7935 16.9649C21.0165 16.5112 21.1333 16.0125 21.1349 15.5069V12.564C21.1332 11.9326 20.9522 11.3148 20.6128 10.7825C20.2734 10.2501 19.7897 9.82523 19.218 9.55732C18.6463 9.28942 18.0103 9.18953 17.384 9.26932C16.7578 9.3491 16.1671 9.60527 15.6809 10.008" stroke="#1A1A1A" stroke-width="1.35" stroke-linejoin="round"/>
<path d="M14.8711 19.5929L14.6731 18.6929C15.1571 18.3165 15.5489 17.8348 15.8187 17.2843C16.0885 16.7338 16.2292 16.1289 16.2301 15.5159V11.9159C16.1616 10.8884 15.7051 9.92541 14.9531 9.22191C14.2011 8.51842 13.2099 8.12701 12.1801 8.12701C11.1504 8.12701 10.1591 8.51842 9.40712 9.22191C8.65514 9.92541 8.19865 10.8884 8.13011 11.9159V15.5159C8.13287 16.1255 8.2726 16.7267 8.53898 17.2751C8.80537 17.8234 9.19159 18.3049 9.66911 18.6839L9.48911 19.5839L3.78311 21.3839V24.7499H20.5951V21.3839L14.8711 19.5929Z" stroke="#1A1A1A" stroke-width="1.35" stroke-linejoin="round"/>
</svg>
