<svg width="24" height="24" viewBox="0 0 24 24" fill="none" xmlns="http://www.w3.org/2000/svg">
<path d="M3.75 4.5H20.25" stroke="#1A1A1A" stroke-width="1.5" stroke-linecap="square" stroke-linejoin="round"/>
<path d="M12.75 12H20.25" stroke="#1A1A1A" stroke-width="1.5" stroke-linecap="square" stroke-linejoin="round"/>
<path d="M3.75 19.5H20.25" stroke="#1A1A1A" stroke-width="1.5" stroke-linecap="square" stroke-linejoin="round"/>
<path fill-rule="evenodd" clip-rule="evenodd" d="M8.58227 12.3943C8.77307 12.2618 8.86847 12.1955 8.90203 12.1128C8.93139 12.0405 8.93139 11.9595 8.90203 11.8872C8.86847 11.8045 8.77307 11.7382 8.58227 11.6057L4.50379 8.77346C4.25969 8.60395 4.13763 8.51919 4.0361 8.5239C3.94768 8.528 3.86558 8.57094 3.81178 8.64123C3.75 8.72194 3.75 8.87053 3.75 9.16772V14.8323C3.75 15.1295 3.75 15.2781 3.81178 15.3588C3.86558 15.4291 3.94768 15.472 4.0361 15.4761C4.13763 15.4808 4.25969 15.3961 4.50379 15.2265L8.58227 12.3943Z" fill="#1A1A1A"/>
</svg>
