<svg width="28" height="27" viewBox="0 0 28 27" fill="none" xmlns="http://www.w3.org/2000/svg">
<path fill-rule="evenodd" clip-rule="evenodd" d="M21.85 9.54999C21.85 8.9977 21.4023 8.54999 20.85 8.54999H6.65002C6.09774 8.54999 5.65002 8.9977 5.65002 9.54999V22.85C5.65002 23.4023 6.09774 23.85 6.65002 23.85H20.85C21.4023 23.85 21.85 23.4023 21.85 22.85V9.54999ZM9.47504 13.9498C9.47504 13.577 9.77724 13.2748 10.15 13.2748H16.45C16.8228 13.2748 17.125 13.577 17.125 13.9498C17.125 14.3226 16.8228 14.6248 16.45 14.6248H10.15C9.77724 14.6248 9.47504 14.3226 9.47504 13.9498ZM9.47504 17.5499C9.47504 17.1771 9.77724 16.8749 10.15 16.8749H12.85C13.2228 16.8749 13.525 17.1771 13.525 17.5499C13.525 17.9227 13.2228 18.2249 12.85 18.2249H10.15C9.77724 18.2249 9.47504 17.9227 9.47504 17.5499Z" fill="#2A54FF"/>
</svg>
